<svg width="19" height="18" viewBox="0 0 19 18" fill="none" xmlns="http://www.w3.org/2000/svg">
<path d="M15.625 10.5V7.5C15.625 4.18629 12.9387 1.5 9.625 1.5V1.5C6.31129 1.5 3.625 4.18629 3.625 7.5V10.5" stroke="#FF3131" stroke-width="1.5" stroke-linecap="round" stroke-linejoin="round"/>
<path d="M5.875 12V14.25C5.875 15.0784 5.20343 15.75 4.375 15.75C3.54657 15.75 2.875 15.0784 2.875 14.25L2.875 12C2.875 11.1716 3.54657 10.5 4.375 10.5C5.20343 10.5 5.875 11.1716 5.875 12Z" stroke="#FF3131" stroke-width="1.5" stroke-linecap="round" stroke-linejoin="round"/>
<path d="M16.375 12V14.25C16.375 15.0784 15.7034 15.75 14.875 15.75C14.0466 15.75 13.375 15.0784 13.375 14.25L13.375 12C13.375 11.1716 14.0466 10.5 14.875 10.5C15.7034 10.5 16.375 11.1716 16.375 12Z" stroke="#FF3131" stroke-width="1.5" stroke-linecap="round" stroke-linejoin="round"/>
</svg>
