<svg width="245" height="130" viewBox="0 0 245 130" fill="none" xmlns="http://www.w3.org/2000/svg">
<path d="M3.87501 6.35711C6.20728 5.47388 8.84274 6.12548 10.4947 7.99379L29.4995 29.4874L48.5043 7.99379C50.1562 6.12548 52.7917 5.47388 55.124 6.35711C57.4562 7.24034 58.999 9.47422 58.999 11.9681V55.9674C58.999 59.281 56.3127 61.9673 52.9991 61.9673C49.6854 61.9673 46.9992 59.281 46.9992 55.9674V27.8116L33.9943 42.5196C32.8554 43.8076 31.2188 44.5451 29.4995 44.5451C27.7802 44.5451 26.1435 43.8076 25.0047 42.5196L11.9998 27.8116V55.9674C11.9998 59.281 9.31355 61.9673 5.9999 61.9673C2.68624 61.9673 0 59.281 0 55.9674V11.9681C0 9.47422 1.54273 7.24034 3.87501 6.35711Z" fill="black"/>
<path d="M226.766 62.6809C220.756 62.6809 216.304 61.1736 213.103 59.0694C210.584 57.4128 210.742 53.925 212.812 51.7328L213.002 51.5324C214.636 49.8023 217.468 49.8958 219.598 50.9565C221.699 52.0025 224.294 52.6405 227.086 52.6405C231.32 52.6405 233.157 51.2965 233.157 49.3991C233.157 47.5203 230.464 46.8389 226.743 45.897C225.14 45.4913 223.346 45.0372 221.494 44.4184C215.902 42.521 212.228 39.3586 212.228 33.3502C212.228 24.8119 219.737 20.5427 227.885 20.5427C232.176 20.5427 235.557 21.4161 238.231 22.6919C241.008 24.0171 241.353 27.5802 239.535 30.0632C238.194 31.8951 235.571 32.1907 233.43 31.4344C231.862 30.8802 229.924 30.5041 227.565 30.5041C224.849 30.5041 223.571 31.69 223.571 33.034C223.571 34.8315 225.036 35.2148 228.323 36.0754C229.952 36.5017 232.028 37.0451 234.595 37.9356C241.864 40.3864 244.5 44.1812 244.5 49.2409C244.5 56.9096 239.068 62.6809 226.766 62.6809Z" fill="black"/>
<path d="M107.998 32.9677C103.58 32.9677 99.9983 36.5494 99.9983 40.9676V55.9673C99.9983 59.281 97.312 61.9672 93.9984 61.9672C90.6847 61.9672 87.9985 59.281 87.9985 55.9673V40.9676C87.9985 29.9221 96.9526 20.968 107.998 20.968C119.044 20.968 127.998 29.9221 127.998 40.9676V55.9673C127.998 59.281 125.312 61.9672 121.998 61.9672C118.684 61.9672 115.998 59.281 115.998 55.9673V40.9676C115.998 36.5494 112.416 32.9677 107.998 32.9677Z" fill="black"/>
<path d="M73.9987 21.9679C77.3124 21.9679 79.9986 24.6542 79.9986 27.9678V55.9673C79.9986 59.281 77.3124 61.9672 73.9987 61.9672C70.6851 61.9672 67.9988 59.281 67.9988 55.9673V27.9678C67.9988 24.6542 70.6851 21.9679 73.9987 21.9679Z" fill="black"/>
<path d="M186.997 11.9681C186.997 8.65446 189.683 5.96822 192.997 5.96822C196.31 5.96822 198.997 8.65446 198.997 11.9681V20.968H201.996C205.31 20.968 207.996 23.6542 207.996 26.9678C207.996 30.2815 205.31 32.9677 201.996 32.9677H198.997V55.9673C198.997 59.281 196.31 61.9672 192.997 61.9672C189.683 61.9672 186.997 59.281 186.997 55.9673V32.9677C183.683 32.9677 180.997 30.2815 180.997 26.9678C180.997 23.6542 183.683 20.968 186.997 20.968V11.9681Z" fill="black"/>
<path fill-rule="evenodd" clip-rule="evenodd" d="M165.891 21.8153C162.669 20.0008 158.945 18.968 154.997 18.968C142.953 18.968 132.998 28.58 132.998 40.6717C132.998 52.7634 142.953 62.3754 154.997 62.3754C158.585 62.3754 161.988 61.5224 164.997 60.0049V61.2632C164.997 66.5174 160.626 70.9671 154.997 70.9671C152.566 70.9671 150.363 70.1329 148.642 68.7551C146.055 66.6843 142.279 67.1028 140.208 69.6897C138.137 72.2766 138.556 76.0524 141.143 78.1232C144.932 81.1561 149.764 82.9669 154.997 82.9669C167.041 82.9669 176.997 73.3549 176.997 61.2632V24.9679C176.997 21.6542 174.311 18.968 170.997 18.968C168.84 18.968 166.949 20.1064 165.891 21.8153ZM154.997 30.9678C149.368 30.9678 144.997 35.4175 144.997 40.6717C144.997 45.9259 149.368 50.3756 154.997 50.3756C160.626 50.3756 164.997 45.9259 164.997 40.6717C164.997 35.4175 160.626 30.9678 154.997 30.9678Z" fill="black"/>
<path d="M86.0669 12.3904C89.0616 10.9719 90.3393 7.39425 88.9208 4.39958C87.5023 1.40491 83.9247 0.127193 80.93 1.54572L71.4301 6.04564C68.4355 7.46417 67.1578 11.0418 68.5763 14.0364C69.9948 17.0311 73.5724 18.3088 76.5671 16.8903L86.0669 12.3904Z" fill="#FF3131"/>
<path d="M21.9945 109.985H41.0068V115.028C40.5874 125.589 40.1214 126.541 38.9098 127.971C38.0245 129.124 36.9061 129.539 35.4616 129.677C34.2034 129.908 32.0133 129.862 29.7765 129.769C29.7299 128.478 29.1708 126.679 28.5183 125.527C30.3823 125.665 32.1064 125.711 32.8986 125.711C33.551 125.711 33.9704 125.619 34.3898 125.158C35.0422 124.327 35.4149 121.422 35.6945 114.089H16.7289V91.2605H24.0449C24.6973 89.7847 25.3031 88.2167 25.7224 86.9254L31.4075 87.571C30.8722 88.6306 30.2428 89.6591 29.648 90.6311C29.5178 90.8437 29.3894 91.0536 29.2639 91.2605H38.4438C38.4438 91.2605 38.4904 96.4283 38.4438 97.0278C38.1532 104.835 37.6776 105.355 36.8522 106.256L36.8508 106.258C36.7503 106.367 36.6445 106.483 36.5333 106.618C35.7411 107.633 34.8092 108.001 33.551 108.14C32.5258 108.324 30.8017 108.37 28.9378 108.278C28.8446 106.987 28.3319 105.234 27.7262 104.081C29.1242 104.22 30.3357 104.266 30.9881 104.266C31.4541 104.266 31.8268 104.174 32.153 103.759C32.6656 103.113 32.9918 100.945 33.2248 95.365H21.9945V109.985Z" fill="black"/>
<path fill-rule="evenodd" clip-rule="evenodd" d="M13.6534 90.8916H0V122.344H5.07925V118.563H13.6534V90.8916ZM8.62074 96.1952V113.259H5.07925V96.1952H8.62074Z" fill="black"/>
<path d="M33.8772 117.41H15.3775V122.022H33.8772V117.41Z" fill="black"/>
<path d="M58.5745 94.7194C56.9435 92.6902 53.5884 89.8769 51.1187 87.8939L47.6238 91.2605C50.0935 93.382 53.3554 96.4258 54.8 98.4089L58.5745 94.7194Z" fill="black"/>
<path d="M56.1979 101.084V118.839L60.2054 115.98C60.5782 117.456 61.2306 119.623 61.7431 120.684C53.5418 126.91 52.0507 128.155 51.2585 129.262C50.7459 128.201 49.1615 126.403 48.3228 125.665C49.3479 124.742 51.0255 122.759 51.0255 120.177V106.341H45.3404V101.084H56.1979Z" fill="black"/>
<path d="M79.171 97.1637H61.4636V101.729H79.171V97.1637Z" fill="black"/>
<path fill-rule="evenodd" clip-rule="evenodd" d="M77.6333 105.142V120.223H67.7078V122.99H62.8615V105.142H77.6333ZM72.6938 115.657V109.754H67.7078V115.657H72.6938Z" fill="black"/>
<path d="M86.72 88.9546H60.5782V93.9815H81.4544V123.59C81.4544 124.374 81.1748 124.65 80.336 124.65C80.2148 124.65 80.0466 124.651 79.8397 124.653L79.8366 124.653C78.6902 124.66 76.3606 124.675 74.2316 124.558C75.0238 125.988 75.7693 128.478 75.9557 130C79.9166 130 82.6193 129.862 84.3435 128.985C86.1608 128.063 86.72 126.587 86.72 123.682V88.9546Z" fill="black"/>
<path d="M30.4425 101.181C31.5567 100.665 32.0321 99.3646 31.5043 98.2758C30.9766 97.187 29.6455 96.7224 28.5313 97.2382L24.9969 98.8743C23.8827 99.39 23.4074 100.691 23.9351 101.78C24.4629 102.868 25.7939 103.333 26.9081 102.817L30.4425 101.181Z" fill="#FF3131"/>
</svg>
