<svg width="365" height="83" viewBox="0 0 365 83" fill="none" xmlns="http://www.w3.org/2000/svg">
<path d="M3.87507 5.39036C6.20739 4.50712 8.8429 5.15873 10.4949 7.02708L29.5 28.5211L48.5051 7.02708C50.1571 5.15873 52.7926 4.50712 55.1249 5.39036C57.4572 6.27361 59 8.50753 59 11.0015V55.0015C59 58.3152 56.3137 61.0015 53 61.0015C49.6863 61.0015 47 58.3152 47 55.0015V26.8452L33.9949 41.5535C32.856 42.8415 31.2193 43.5791 29.5 43.5791C27.7807 43.5791 26.144 42.8415 25.0051 41.5535L12 26.8452V55.0015C12 58.3152 9.31371 61.0015 6 61.0015C2.68629 61.0015 0 58.3152 0 55.0015V11.0015C0 8.50753 1.54276 6.27361 3.87507 5.39036Z" fill="black"/>
<path d="M226.77 61.7151C220.76 61.7151 216.308 60.2079 213.107 58.1036C210.588 56.447 210.746 52.9591 212.816 50.7669L213.006 50.5664C214.64 48.8364 217.472 48.9298 219.602 49.9906C221.703 51.0365 224.298 51.6745 227.09 51.6745C231.324 51.6745 233.161 50.3305 233.161 48.4331C233.161 46.5543 230.468 45.8728 226.747 44.9309C225.144 44.5252 223.35 44.0712 221.498 43.4523C215.906 41.5549 212.232 38.3925 212.232 32.3839C212.232 23.8455 219.741 19.5762 227.889 19.5762C232.18 19.5762 235.561 20.4496 238.235 21.7255C241.012 23.0507 241.357 26.6138 239.539 29.0969C238.198 30.9288 235.575 31.2244 233.434 30.4681C231.866 29.9139 229.928 29.5378 227.569 29.5378C224.853 29.5378 223.575 30.7237 223.575 32.0677C223.575 33.8652 225.04 34.2486 228.327 35.1091C229.956 35.5354 232.032 36.0789 234.599 36.9694C241.868 39.4202 244.504 43.2151 244.504 48.275C244.504 55.9438 239.072 61.7151 226.77 61.7151Z" fill="black"/>
<path d="M108 32.0015C103.582 32.0015 100 35.5832 100 40.0015V55.0015C100 58.3152 97.3137 61.0015 94 61.0015C90.6863 61.0015 88 58.3152 88 55.0015V40.0015C88 28.9558 96.9543 20.0015 108 20.0015C119.046 20.0015 128 28.9558 128 40.0015V55.0015C128 58.3152 125.314 61.0015 122 61.0015C118.686 61.0015 116 58.3152 116 55.0015V40.0015C116 35.5832 112.418 32.0015 108 32.0015Z" fill="black"/>
<path d="M74 21.0015C77.3137 21.0015 80 23.6878 80 27.0015V55.0015C80 58.3152 77.3137 61.0015 74 61.0015C70.6863 61.0015 68 58.3152 68 55.0015V27.0015C68 23.6878 70.6863 21.0015 74 21.0015Z" fill="black"/>
<path d="M187 11.0015C187 7.68776 189.686 5.00146 193 5.00146C196.314 5.00146 199 7.68776 199 11.0015V20.0015H202C205.314 20.0015 208 22.6878 208 26.0015C208 29.3152 205.314 32.0015 202 32.0015H199V55.0015C199 58.3152 196.314 61.0015 193 61.0015C189.686 61.0015 187 58.3152 187 55.0015V32.0015C183.686 32.0015 181 29.3152 181 26.0015C181 22.6878 183.686 20.0015 187 20.0015V11.0015Z" fill="black"/>
<path fill-rule="evenodd" clip-rule="evenodd" d="M165.894 20.8489C162.672 19.0343 158.948 18.0015 155 18.0015C142.956 18.0015 133 27.6136 133 39.7055C133 51.7975 142.956 61.4096 155 61.4096C158.588 61.4096 161.991 60.5566 165 59.0391V60.2974C165 65.5517 160.629 70.0015 155 70.0015C152.569 70.0015 150.365 69.1672 148.644 67.7894C146.057 65.7186 142.281 66.1371 140.211 68.7241C138.14 71.311 138.558 75.0869 141.145 77.1577C144.934 80.1907 149.766 82.0015 155 82.0015C167.044 82.0015 177 72.3893 177 60.2974V24.0015C177 20.6878 174.314 18.0015 171 18.0015C168.843 18.0015 166.951 19.1399 165.894 20.8489ZM155 30.0015C149.371 30.0015 145 34.4512 145 39.7055C145 44.9599 149.371 49.4096 155 49.4096C160.629 49.4096 165 44.9599 165 39.7055C165 34.4512 160.629 30.0015 155 30.0015Z" fill="black"/>
<path d="M86.0685 11.4238C89.0632 10.0053 90.3409 6.42761 88.9224 3.43289C87.5038 0.438166 83.9261 -0.839573 80.9314 0.578981L71.4314 5.07898C68.4367 6.49753 67.159 10.0752 68.5775 13.0699C69.9961 16.0646 73.5737 17.3424 76.5685 15.9238L86.0685 11.4238Z" fill="#FF3131"/>
<path d="M299.499 42.5226H318.511V47.5659C318.091 58.127 317.625 59.0791 316.414 60.5087C315.529 61.6617 314.41 62.0768 312.966 62.2151C311.708 62.4457 309.517 62.3996 307.281 62.3074C307.234 61.016 306.675 59.2174 306.022 58.0645C307.886 58.2028 309.611 58.249 310.403 58.249C311.055 58.249 311.474 58.1567 311.894 57.6955C312.546 56.8654 312.919 53.96 313.199 46.6272H294.233V23.7986H301.549C302.201 22.3228 302.807 20.7548 303.227 19.4635L308.912 20.1092C308.376 21.1687 307.747 22.1972 307.152 23.1692C307.022 23.3818 306.894 23.5917 306.768 23.7986H315.948C315.948 23.7986 315.995 28.9664 315.948 29.5659C315.657 37.3734 315.182 37.8928 314.356 38.7941L314.355 38.7957C314.254 38.9054 314.149 39.0209 314.037 39.156C313.245 40.1706 312.313 40.5396 311.055 40.6779C310.03 40.8624 308.306 40.9085 306.442 40.8163C306.349 39.5249 305.836 37.7725 305.23 36.6195C306.628 36.7579 307.84 36.804 308.492 36.804C308.958 36.804 309.331 36.7117 309.657 36.2967C310.17 35.651 310.496 33.4835 310.729 27.9032H299.499V42.5226Z" fill="black"/>
<path fill-rule="evenodd" clip-rule="evenodd" d="M291.158 23.4297H277.504V54.8823H282.583V51.1006H291.158V23.4297ZM286.125 28.7333V45.797H282.583V28.7333H286.125Z" fill="black"/>
<path d="M311.381 49.9477H292.882V54.5595H311.381V49.9477Z" fill="black"/>
<path d="M336.078 27.2575C334.448 25.2283 331.092 22.4151 328.623 20.432L325.128 23.7986C327.598 25.9201 330.859 28.9639 332.304 30.947L336.078 27.2575Z" fill="black"/>
<path d="M333.702 33.6218V51.3773L337.709 48.518C338.082 49.9938 338.735 52.1613 339.247 53.2221C331.046 59.448 329.555 60.6932 328.763 61.8001C328.25 60.7393 326.666 58.9407 325.827 58.2028C326.852 57.2805 328.53 55.2974 328.53 52.7148V38.8793H322.845V33.6218H333.702Z" fill="black"/>
<path d="M356.675 29.7018H338.968V34.2675H356.675V29.7018Z" fill="black"/>
<path fill-rule="evenodd" clip-rule="evenodd" d="M355.137 37.6802V52.7609H345.212V55.528H340.366V37.6802H355.137ZM350.198 48.1952V42.292H345.212V48.1952H350.198Z" fill="black"/>
<path d="M364.224 21.4927H338.082V26.5196H358.958V56.1275C358.958 56.9115 358.679 57.1882 357.84 57.1882C357.719 57.1882 357.551 57.1893 357.344 57.1906L357.34 57.1907C356.194 57.198 353.865 57.2131 351.736 57.096C352.528 58.5257 353.273 61.016 353.46 62.5379C357.421 62.5379 360.123 62.3996 361.847 61.5233C363.665 60.601 364.224 59.1252 364.224 56.2197V21.4927Z" fill="black"/>
<path d="M307.947 33.7192C309.061 33.2035 309.536 31.9027 309.009 30.8139C308.481 29.7251 307.15 29.2606 306.036 29.7763L302.501 31.4124C301.387 31.9281 300.912 33.2289 301.439 34.3177C301.967 35.4065 303.298 35.8711 304.412 35.3553L307.947 33.7192Z" fill="#FF3131"/>
</svg>
